<svg width="320" height="60" viewBox="0 0 320 60" fill="none" xmlns="http://www.w3.org/2000/svg">
<path d="M7.22089 48.0278C6.67776 47.5097 6.64509 47.1125 6.64509 41.0257C6.64509 34.939 6.67776 34.5417 7.22089 34.0237C7.65364 33.611 8.17217 33.4767 9.30815 33.4833C11.9059 33.4983 11.9566 33.5969 12.0626 38.8403L12.1539 43.3597H23.6504H35.147V39.1407C35.147 35.2881 35.1988 34.8587 35.7437 34.198C36.2573 33.5752 36.5578 33.4745 37.9029 33.4745C39.0816 33.4745 39.6069 33.6095 40.0413 34.0237C40.5844 34.5417 40.617 34.939 40.617 41.0257C40.617 47.1125 40.5844 47.5097 40.0413 48.0278C39.4794 48.5636 39.0816 48.5769 23.6311 48.5769C8.18055 48.5769 7.78272 48.5636 7.22089 48.0278ZM0.916955 29.4834C0.326057 28.8416 0.0234375 28.2228 0.0234375 27.6564C0.0234375 26.7012 0.710951 26.0041 4.44072 23.1775L6.61463 21.5299L6.62986 16.9784C6.64456 12.585 6.66824 12.4062 7.31142 11.8299C7.81325 11.3802 8.33527 11.2328 9.42603 11.2328C11.5108 11.2328 11.9322 11.7698 12.1152 14.6594L12.2591 16.9327L17.4294 12.7847C21.9977 9.11967 22.7203 8.63672 23.6354 8.63672C24.5494 8.63672 25.2779 9.1217 29.8371 12.7658C32.6783 15.0369 37.5293 18.9044 40.617 21.3603C43.7048 23.8162 46.4578 26.0775 46.7349 26.3854C47.5057 27.2419 47.3627 28.3781 46.3452 29.4834C44.6215 31.3559 44.6214 31.3558 34.639 23.4155C29.7722 19.5443 25.3186 15.949 24.7422 15.426L23.694 14.4751L22.5829 15.417C21.9718 15.9351 19.0103 18.3211 16.0018 20.7192C12.9932 23.1173 9.02453 26.2887 7.18241 27.7667C4.33607 30.0505 3.68123 30.4541 2.82179 30.4541C2.02456 30.4541 1.62133 30.2486 0.916955 29.4834Z" fill="#004318"/>
<path d="M63.3662 14.6562C65.366 14.7697 66.9616 14.8548 68.153 14.9115C69.3586 14.9683 70.3302 14.9966 71.0677 14.9966C72.1173 14.9966 73.3299 14.9683 74.7057 14.9115C76.0815 14.8548 77.6913 14.7697 79.5351 14.6562V17.2518H79.0033C77.6984 17.2518 76.819 17.5496 76.3652 18.1453C75.9113 18.741 75.6844 20.3083 75.6844 22.8471V23.4003V27.1446C76.6488 27.2014 77.6204 27.251 78.599 27.2936C79.5777 27.3219 80.5989 27.3361 81.6626 27.3361C83.4214 27.3361 85.2652 27.2865 87.1941 27.1872C87.6906 27.1588 87.9955 27.1446 88.109 27.1446H88.2792V22.2727C88.2792 20.0601 88.0522 18.6701 87.5984 18.1028C87.1587 17.5355 86.2864 17.2518 84.9815 17.2518H84.4922V14.6562C86.336 14.7697 87.9388 14.8548 89.3004 14.9115C90.662 14.9683 91.8604 14.9966 92.8958 14.9966C93.6475 14.9966 94.6404 14.9683 95.8743 14.9115C97.1225 14.8548 98.7181 14.7697 100.661 14.6562V17.2518C100.534 17.2376 100.406 17.2305 100.278 17.2305C100.151 17.2163 99.9733 17.2092 99.7464 17.2092C98.5833 17.2092 97.7962 17.6418 97.3848 18.507C96.9877 19.3722 96.7891 21.5848 96.7891 25.1448V26.9319V28.5062V31.0805C96.7891 31.7046 96.7821 32.5414 96.7679 33.591C96.7537 34.6405 96.7466 35.371 96.7466 35.7823C96.7466 37.4985 96.7891 38.7608 96.8742 39.5692C96.9735 40.3635 97.1295 40.9592 97.3423 41.3563C97.5409 41.7251 97.8671 42.0017 98.3209 42.1861C98.7748 42.3563 99.3634 42.4414 100.087 42.4414C100.158 42.4414 100.285 42.4343 100.47 42.4201C100.654 42.4059 100.789 42.3988 100.874 42.3988V45.0156C98.8457 44.888 97.1863 44.8029 95.8956 44.7603C94.6049 44.7036 93.5766 44.6752 92.8107 44.6752C91.8179 44.6752 90.6265 44.7036 89.2365 44.7603C87.8608 44.8029 86.1658 44.888 84.1518 45.0156V42.3988C84.2653 42.413 84.3858 42.4272 84.5135 42.4414C84.6553 42.4414 84.8539 42.4414 85.1092 42.4414C86.329 42.4414 87.1587 42.1506 87.5984 41.5691C88.0522 40.9734 88.2792 39.4487 88.2792 36.995V36.1652V36.0376V31.74C87.2154 31.6833 86.1588 31.6479 85.1092 31.6337C84.0596 31.6053 82.9959 31.5911 81.9179 31.5911C80.6982 31.5911 79.06 31.6266 77.0034 31.6975C76.3935 31.7117 75.9539 31.7188 75.6844 31.7188V36.1652V36.995C75.6844 39.4487 75.9042 40.9663 76.3439 41.5478C76.7836 42.1151 77.6275 42.3988 78.8756 42.3988H79.4926H79.833V45.0156C77.819 44.888 76.117 44.8029 74.727 44.7603C73.337 44.7036 72.1456 44.6752 71.1528 44.6752C70.4295 44.6752 69.4437 44.7036 68.1956 44.7603C66.9616 44.8029 65.2809 44.888 63.1534 45.0156V42.3988H63.7917C64.6001 42.3988 65.21 42.3208 65.6213 42.1648C66.0468 41.9946 66.3518 41.7251 66.5361 41.3563C66.9333 40.5621 67.1531 37.6545 67.1957 32.6336C67.1957 31.9953 67.1957 31.506 67.1957 31.1656V28.5913C67.1957 27.7403 67.2098 26.6624 67.2382 25.3576C67.2666 24.0527 67.2808 23.1662 67.2808 22.6982C67.2808 20.4572 67.0609 18.9822 66.6212 18.273C66.1957 17.5638 65.4015 17.2092 64.2384 17.2092C64.0115 17.2092 63.8342 17.2163 63.7066 17.2305C63.5931 17.2305 63.4796 17.2376 63.3662 17.2518V14.6562ZM116.192 26.5915C114.83 26.5915 113.795 27.1517 113.086 28.2722C112.377 29.3785 112.022 31.0096 112.022 33.1655C112.022 36.0447 112.405 38.2289 113.171 39.7182C113.937 41.1932 115.079 41.9308 116.596 41.9308C118.014 41.9308 119.078 41.3634 119.787 40.2288C120.497 39.0799 120.851 37.3637 120.851 35.0802C120.851 32.3003 120.454 30.1941 119.66 28.7615C118.88 27.3148 117.724 26.5915 116.192 26.5915ZM116.426 22.8471C120.298 22.8471 123.418 23.9179 125.787 26.0596C128.17 28.1871 129.361 30.9458 129.361 34.3356C129.361 37.6829 128.148 40.4344 125.723 42.5903C123.312 44.732 120.199 45.8028 116.383 45.8028C112.582 45.8028 109.49 44.7745 107.108 42.7179C104.739 40.6472 103.555 37.9736 103.555 34.6973C103.555 31.2365 104.76 28.3999 107.171 26.1873C109.582 23.9605 112.667 22.8471 116.426 22.8471ZM142.19 22.8897C142.119 23.7548 142.062 24.4569 142.02 24.9959C141.977 25.5348 141.935 26.0313 141.892 26.4851C143.396 25.2795 144.75 24.4073 145.956 23.8683C147.175 23.3293 148.374 23.0599 149.551 23.0599C150.856 23.0599 151.991 23.3648 152.955 23.9747C153.92 24.5704 154.685 25.4568 155.253 26.634C156.699 25.4285 158.068 24.5349 159.359 23.9534C160.65 23.3577 161.883 23.0599 163.061 23.0599C165.103 23.0599 166.741 23.7265 167.975 25.0597C169.223 26.3929 169.847 28.1658 169.847 30.3784C169.847 31.1869 169.84 31.889 169.826 32.4847C169.826 33.0662 169.819 33.6477 169.805 34.2292L169.762 36.7397C169.762 37.0375 169.755 37.5481 169.741 38.2715C169.727 38.9948 169.72 39.5692 169.72 39.9947C169.72 41.0585 169.883 41.7889 170.209 42.1861C170.535 42.569 171.131 42.7605 171.996 42.7605C172.039 42.7605 172.131 42.7534 172.273 42.7392C172.429 42.7108 172.549 42.6967 172.634 42.6967V45.0156C171.4 44.9163 170.252 44.8454 169.188 44.8029C168.124 44.7461 167.167 44.7178 166.316 44.7178C165.564 44.7178 164.678 44.7461 163.656 44.8029C162.635 44.8454 161.508 44.9163 160.274 45.0156V42.7179C160.33 42.7179 160.401 42.725 160.486 42.7392C160.586 42.7534 160.713 42.7605 160.869 42.7605C161.564 42.7605 162.032 42.4839 162.274 41.9308C162.529 41.3634 162.656 40.0515 162.656 37.9949V35.527V34.0377C162.656 31.3713 162.444 29.6906 162.018 28.9956C161.593 28.2864 160.82 27.9318 159.699 27.9318C159.16 27.9318 158.579 28.0382 157.955 28.2509C157.345 28.4637 156.664 28.797 155.912 29.2509V39.4841C155.912 40.945 156.026 41.8598 156.253 42.2286C156.494 42.5832 156.948 42.7605 157.614 42.7605C157.784 42.7605 157.912 42.7605 157.997 42.7605C158.082 42.7463 158.167 42.7321 158.253 42.7179V45.0156C156.352 44.888 155.005 44.81 154.21 44.7816C153.43 44.7391 152.778 44.7178 152.253 44.7178C151.714 44.7178 151.033 44.7391 150.211 44.7816C149.388 44.81 148.048 44.888 146.19 45.0156V42.7179C146.275 42.7321 146.36 42.7463 146.445 42.7605C146.53 42.7605 146.651 42.7605 146.807 42.7605C147.558 42.7605 148.069 42.4839 148.338 41.9308C148.622 41.3634 148.764 40.094 148.764 38.1225V35.4632V34.3356C148.764 31.5415 148.551 29.7757 148.126 29.0381C147.7 28.3006 146.927 27.9318 145.807 27.9318C145.268 27.9318 144.686 28.0382 144.062 28.2509C143.452 28.4495 142.8 28.7545 142.105 29.1658C142.076 30.6834 142.048 32.1372 142.02 33.5271C142.006 34.9029 141.998 36.3071 141.998 37.7396V39.5267C141.998 40.9166 142.119 41.8031 142.36 42.1861C142.615 42.569 143.076 42.7605 143.743 42.7605C143.899 42.7605 144.02 42.7605 144.105 42.7605C144.19 42.7463 144.275 42.7321 144.36 42.7179V45.0156C142.998 44.9163 141.786 44.8454 140.722 44.8029C139.672 44.7461 138.807 44.7178 138.126 44.7178C137.19 44.7178 136.169 44.7461 135.063 44.8029C133.971 44.8454 132.815 44.9093 131.595 44.9944V42.6967H132.084C133.176 42.6967 133.914 42.4484 134.297 41.952C134.68 41.4414 134.871 40.1507 134.871 38.08V36.6546V32.9527C134.871 32.7116 134.864 32.2719 134.85 31.6337C134.836 30.9954 134.829 30.4777 134.829 30.0806C134.829 29.0452 134.666 28.3219 134.339 27.9105C134.027 27.485 133.488 27.2723 132.723 27.2723C132.666 27.2723 132.503 27.2865 132.233 27.3148C131.978 27.3432 131.765 27.3645 131.595 27.3787V25.1023C133.496 24.847 135.318 24.5349 137.063 24.1662C138.807 23.7974 140.516 23.3719 142.19 22.8897ZM196.93 34.6122H187.357C186.477 34.6122 185.648 34.6334 184.868 34.676C184.087 34.7185 183.371 34.7824 182.719 34.8675C182.903 36.7964 183.541 38.2644 184.634 39.2714C185.74 40.2784 187.272 40.7819 189.229 40.7819C190.094 40.7819 191.059 40.633 192.122 40.3351C193.186 40.0231 194.399 39.5338 195.76 38.8672L196.973 41.5265C194.973 43.0158 193.065 44.1008 191.25 44.7816C189.449 45.4624 187.598 45.8028 185.697 45.8028C182.378 45.8028 179.691 44.7887 177.634 42.7605C175.592 40.7323 174.57 38.0871 174.57 34.8249C174.57 31.3784 175.712 28.5204 177.996 26.2511C180.293 23.9818 183.166 22.8471 186.612 22.8471C189.789 22.8471 192.3 23.8683 194.143 25.9107C196.001 27.9531 196.93 30.733 196.93 34.2505V34.6122ZM189.952 31.2507C189.839 29.6906 189.456 28.4779 188.803 27.6127C188.151 26.7475 187.314 26.3149 186.293 26.3149C185.215 26.3149 184.343 26.7901 183.676 27.7403C183.024 28.6764 182.683 29.96 182.655 31.5911C184.399 31.5911 185.853 31.5628 187.016 31.506C188.194 31.4493 189.172 31.3642 189.952 31.2507Z" fill="#004318"/>
<path d="M221.397 14.6562C223.51 14.7697 225.07 14.8477 226.077 14.8903C227.098 14.9328 227.949 14.9541 228.63 14.9541C229.297 14.9541 230.119 14.9328 231.098 14.8903C232.091 14.8477 233.594 14.7697 235.608 14.6562V17.2518C235.523 17.2376 235.438 17.2305 235.353 17.2305C235.268 17.2163 235.133 17.2092 234.949 17.2092C233.984 17.2092 233.027 17.4858 232.077 18.039C231.141 18.5779 229.687 19.7977 227.715 21.6983L221.929 27.3787L230.779 37.3566C231.119 37.7396 231.587 38.2856 232.183 38.9948C234.112 41.2925 235.779 42.4414 237.183 42.4414C237.381 42.4414 237.53 42.4414 237.629 42.4414C237.729 42.4272 237.821 42.413 237.906 42.3988V45.0156C236.062 44.9305 234.608 44.8738 233.545 44.8454C232.481 44.8171 231.587 44.8029 230.864 44.8029C230.353 44.8029 229.644 44.8171 228.737 44.8454C227.829 44.8738 226.418 44.9305 224.503 45.0156C224.531 44.9447 224.552 44.8809 224.567 44.8242C224.581 44.7532 224.588 44.6398 224.588 44.4838C224.588 43.4767 222.531 40.6401 218.418 35.9738C216.305 33.591 214.61 31.6549 213.333 30.1657L220.652 22.6982C221.971 21.3649 222.822 20.4288 223.205 19.8899C223.602 19.3367 223.801 18.8829 223.801 18.5283C223.801 18.1028 223.602 17.7837 223.205 17.5709C222.822 17.3582 222.219 17.2518 221.397 17.2518V14.6562ZM201.015 14.6562C202.717 14.7555 204.242 14.8335 205.589 14.8903C206.937 14.9328 208.022 14.9541 208.844 14.9541C210.121 14.9541 211.461 14.9328 212.865 14.8903C214.27 14.8335 215.723 14.7555 217.227 14.6562V17.2518H216.61C215.319 17.2518 214.447 17.5709 213.993 18.2092C213.553 18.8474 213.333 20.6061 213.333 23.4854V23.847V36.8673C213.333 39.3778 213.553 40.9379 213.993 41.5478C214.433 42.1435 215.277 42.4414 216.525 42.4414C216.78 42.4414 216.979 42.4414 217.12 42.4414C217.276 42.4272 217.411 42.4201 217.525 42.4201V44.9731C215.255 44.8596 213.497 44.7816 212.248 44.7391C211.014 44.6965 209.958 44.6752 209.078 44.6752C208.341 44.6752 207.313 44.7036 205.994 44.7603C204.675 44.8029 202.88 44.888 200.611 45.0156V42.3988C200.724 42.3988 200.866 42.4059 201.037 42.4201C201.221 42.4343 201.356 42.4414 201.441 42.4414C202.76 42.4414 203.639 42.1577 204.079 41.5904C204.533 41.023 204.76 39.8387 204.76 38.0374C204.76 37.7538 204.767 36.8319 204.781 35.2717C204.809 33.6973 204.831 32.3145 204.845 31.1231L204.887 28.0595V26.0596C204.887 25.5348 204.894 24.847 204.909 23.996C204.923 23.145 204.93 22.5563 204.93 22.2301C204.93 20.131 204.703 18.7765 204.249 18.1666C203.809 17.5567 202.958 17.2518 201.696 17.2518H201.015V14.6562ZM261.521 34.6122H251.948C251.068 34.6122 250.238 34.6334 249.458 34.676C248.678 34.7185 247.962 34.7824 247.31 34.8675C247.494 36.7964 248.132 38.2644 249.224 39.2714C250.331 40.2784 251.862 40.7819 253.82 40.7819C254.685 40.7819 255.649 40.633 256.713 40.3351C257.777 40.0231 258.99 39.5338 260.351 38.8672L261.564 41.5265C259.564 43.0158 257.656 44.1008 255.841 44.7816C254.04 45.4624 252.189 45.8028 250.288 45.8028C246.969 45.8028 244.281 44.7887 242.225 42.7605C240.182 40.7323 239.161 38.0871 239.161 34.8249C239.161 31.3784 240.303 28.5204 242.587 26.2511C244.884 23.9818 247.756 22.8471 251.203 22.8471C254.38 22.8471 256.89 23.8683 258.734 25.9107C260.592 27.9531 261.521 30.733 261.521 34.2505V34.6122ZM254.543 31.2507C254.43 29.6906 254.047 28.4779 253.394 27.6127C252.742 26.7475 251.905 26.3149 250.884 26.3149C249.806 26.3149 248.934 26.7901 248.267 27.7403C247.615 28.6764 247.274 29.96 247.246 31.5911C248.99 31.5911 250.444 31.5628 251.607 31.506C252.784 31.4493 253.763 31.3642 254.543 31.2507ZM287.689 34.6122H278.116C277.236 34.6122 276.407 34.6334 275.627 34.676C274.846 34.7185 274.13 34.7824 273.478 34.8675C273.662 36.7964 274.3 38.2644 275.393 39.2714C276.499 40.2784 278.031 40.7819 279.988 40.7819C280.853 40.7819 281.818 40.633 282.881 40.3351C283.945 40.0231 285.158 39.5338 286.519 38.8672L287.732 41.5265C285.732 43.0158 283.825 44.1008 282.009 44.7816C280.208 45.4624 278.357 45.8028 276.456 45.8028C273.137 45.8028 270.45 44.7887 268.393 42.7605C266.351 40.7323 265.329 38.0871 265.329 34.8249C265.329 31.3784 266.471 28.5204 268.755 26.2511C271.052 23.9818 273.925 22.8471 277.371 22.8471C280.548 22.8471 283.059 23.8683 284.902 25.9107C286.76 27.9531 287.689 30.733 287.689 34.2505V34.6122ZM280.711 31.2507C280.598 29.6906 280.215 28.4779 279.562 27.6127C278.91 26.7475 278.073 26.3149 277.052 26.3149C275.974 26.3149 275.102 26.7901 274.435 27.7403C273.783 28.6764 273.442 29.96 273.414 31.5911C275.159 31.5911 276.612 31.5628 277.775 31.506C278.953 31.4493 279.931 31.3642 280.711 31.2507ZM301.667 40.5266C302.249 40.9947 302.83 41.3421 303.412 41.5691C303.993 41.7818 304.603 41.8882 305.241 41.8882C306.773 41.8882 307.957 41.3138 308.794 40.1649C309.645 39.0019 310.071 37.3637 310.071 35.2504C310.071 32.8534 309.61 30.96 308.688 29.57C307.766 28.1658 306.525 27.4638 304.965 27.4638C304.454 27.4638 303.936 27.556 303.412 27.7403C302.901 27.9105 302.334 28.1942 301.71 28.5913C301.695 29.5133 301.674 30.8607 301.646 32.6336C301.632 34.4065 301.625 35.5554 301.625 36.0801V38.3566C301.625 38.5835 301.632 38.9381 301.646 39.4203C301.66 39.9025 301.667 40.2713 301.667 40.5266ZM302.05 22.145C302.008 22.5563 301.944 23.1733 301.859 23.996C301.788 24.8044 301.738 25.3717 301.71 25.6979C302.986 24.7619 304.156 24.0811 305.22 23.6556C306.284 23.2301 307.348 23.0173 308.411 23.0173C311.22 23.0173 313.531 24.0172 315.347 26.0171C317.177 28.0169 318.091 30.5557 318.091 33.6335C318.091 37.0659 316.978 39.8884 314.751 42.101C312.539 44.2994 309.716 45.3986 306.284 45.3986C305.532 45.3986 304.773 45.3347 304.007 45.2071C303.256 45.0794 302.461 44.888 301.625 44.6327L301.518 49.5046V50.4195C301.518 51.7811 301.688 52.6321 302.029 52.9725C302.369 53.327 303.1 53.5043 304.22 53.5043C304.348 53.5043 304.553 53.4972 304.837 53.4831C305.135 53.4689 305.369 53.4618 305.539 53.4618V55.9935C303.965 55.9084 302.525 55.8446 301.22 55.802C299.915 55.7595 298.738 55.7382 297.689 55.7382C296.781 55.7382 295.739 55.7595 294.561 55.802C293.384 55.8446 292.058 55.9084 290.583 55.9935V53.4618H291.54C292.221 53.4618 292.717 53.3838 293.029 53.2278C293.342 53.0717 293.59 52.7881 293.774 52.3768C293.973 51.9229 294.115 50.8308 294.2 49.1004C294.299 47.3701 294.349 44.7178 294.349 41.1436V37.6545V31.1656C294.349 29.3785 294.193 28.2368 293.88 27.7403C293.568 27.2297 292.951 26.9744 292.03 26.9744C291.859 26.9744 291.675 26.9815 291.476 26.9957C291.278 26.9957 291.072 27.0028 290.859 27.017L290.774 24.7193C292.618 24.4782 294.476 24.1449 296.348 23.7194C298.235 23.2939 300.135 22.7691 302.05 22.145Z" fill="#038732"/>
</svg>
