<svg width="319" height="59" viewBox="0 0 319 59" fill="none" xmlns="http://www.w3.org/2000/svg">
<path d="M7.06536 47.2089C6.53397 46.7021 6.502 46.3134 6.502 40.3582C6.502 34.403 6.53397 34.0143 7.06536 33.5075C7.48876 33.1036 7.99608 32.9723 9.10751 32.9787C11.6491 32.9934 11.6987 33.0899 11.8024 38.22L11.8918 42.6418H23.1399H34.388V38.5138C34.388 34.7445 34.4387 34.3244 34.9718 33.678C35.4744 33.0687 35.7683 32.9702 37.0844 32.9702C38.2376 32.9702 38.7515 33.1022 39.1765 33.5075C39.7079 34.0143 39.7399 34.403 39.7399 40.3582C39.7399 46.3134 39.7079 46.7021 39.1765 47.2089C38.6268 47.7332 38.2376 47.7462 23.1209 47.7462C8.00428 47.7462 7.61505 47.7332 7.06536 47.2089ZM0.897647 29.0653C0.319517 28.4373 0.0234375 27.8319 0.0234375 27.2778C0.0234375 26.3432 0.696095 25.6612 4.34527 22.8956L6.4722 21.2837L6.4871 16.8305C6.50148 12.5321 6.52465 12.3571 7.15393 11.7932C7.64492 11.3533 8.15566 11.2091 9.22285 11.2091C11.2626 11.2091 11.6748 11.7344 11.8539 14.5616L11.9947 16.7858L17.0533 12.7274C21.5229 9.14159 22.2298 8.66907 23.1252 8.66907C24.0194 8.66907 24.7321 9.14357 29.1928 12.709C31.9727 14.9309 36.7189 18.7148 39.7399 21.1177C42.7608 23.5205 45.4544 25.733 45.7255 26.0342C46.4796 26.8722 46.3398 27.9838 45.3442 29.0653C43.6577 30.8973 43.6577 30.8972 33.891 23.1285C29.1294 19.3409 24.772 15.8233 24.208 15.3116L23.1825 14.3813L22.0954 15.3029C21.4975 15.8097 18.6 18.1441 15.6565 20.4904C12.713 22.8367 8.83002 25.9396 7.02771 27.3857C4.24288 29.6201 3.60218 30.015 2.76132 30.015C1.98131 30.015 1.5868 29.8139 0.897647 29.0653Z" fill="#038732"/>
<path d="M61.9972 14.3924C63.9539 14.5034 65.515 14.5866 66.6807 14.6421C67.8602 14.6977 68.8108 14.7254 69.5324 14.7254C70.5592 14.7254 71.7457 14.6977 73.0918 14.6421C74.4378 14.5866 76.0128 14.5034 77.8168 14.3924V16.9318H77.2964C76.0198 16.9318 75.1594 17.2232 74.7154 17.8061C74.2713 18.3889 74.0493 19.9223 74.0493 22.4062V22.9474V26.6109C74.9929 26.6664 75.9434 26.715 76.901 26.7566C77.8585 26.7844 78.8576 26.7982 79.8983 26.7982C81.6191 26.7982 83.4231 26.7497 85.3103 26.6525C85.796 26.6248 86.0943 26.6109 86.2054 26.6109H86.3719V21.8442C86.3719 19.6794 86.1499 18.3195 85.7058 17.7644C85.2756 17.2094 84.4222 16.9318 83.1455 16.9318H82.6668V14.3924C84.4708 14.5034 86.0388 14.5866 87.371 14.6421C88.7032 14.6977 89.8758 14.7254 90.8888 14.7254C91.6243 14.7254 92.5956 14.6977 93.8029 14.6421C95.0241 14.5866 96.5852 14.5034 98.4864 14.3924V16.9318C98.3615 16.9179 98.2366 16.911 98.1117 16.911C97.9868 16.8971 97.8133 16.8902 97.5913 16.8902C96.4534 16.8902 95.6832 17.3134 95.2808 18.1599C94.8923 19.0064 94.698 21.1712 94.698 24.6543V26.4028V27.9431V30.4617C94.698 31.0723 94.691 31.891 94.6772 32.9179C94.6633 33.9448 94.6563 34.6595 94.6563 35.0619C94.6563 36.741 94.698 37.976 94.7812 38.767C94.8784 39.5441 95.031 40.1269 95.2392 40.5155C95.4334 40.8763 95.7526 41.1469 96.1967 41.3273C96.6407 41.4938 97.2166 41.5771 97.9243 41.5771C97.9937 41.5771 98.1186 41.5701 98.299 41.5562C98.4794 41.5424 98.6112 41.5354 98.6945 41.5354V44.0957C96.7101 43.9708 95.0865 43.8876 93.8237 43.8459C92.5609 43.7904 91.5549 43.7627 90.8055 43.7627C89.8342 43.7627 88.6685 43.7904 87.3086 43.8459C85.9625 43.8876 84.3042 43.9708 82.3337 44.0957V41.5354C82.4447 41.5493 82.5627 41.5632 82.6876 41.5771C82.8264 41.5771 83.0206 41.5771 83.2704 41.5771C84.4638 41.5771 85.2756 41.2926 85.7058 40.7236C86.1499 40.1408 86.3719 38.649 86.3719 36.2484V35.4366V35.3117V31.107C85.3311 31.0515 84.2973 31.0168 83.2704 31.0029C82.2435 30.9752 81.2028 30.9613 80.1481 30.9613C78.9547 30.9613 77.3519 30.996 75.3398 31.0654C74.7431 31.0792 74.3129 31.0862 74.0493 31.0862V35.4366V36.2484C74.0493 38.649 74.2644 40.1339 74.6945 40.7028C75.1247 41.2579 75.9504 41.5354 77.1715 41.5354H77.7752H78.1082V44.0957C76.1377 43.9708 74.4725 43.8876 73.1126 43.8459C71.7526 43.7904 70.587 43.7627 69.6156 43.7627C68.9079 43.7627 67.9435 43.7904 66.7223 43.8459C65.515 43.8876 63.8706 43.9708 61.7891 44.0957V41.5354H62.4135C63.2045 41.5354 63.8012 41.4591 64.2037 41.3065C64.62 41.1399 64.9183 40.8763 65.0987 40.5155C65.4873 39.7384 65.7024 36.8936 65.744 31.9812C65.744 31.3568 65.744 30.878 65.744 30.545V28.0263C65.744 27.1937 65.7579 26.1391 65.7856 24.8624C65.8134 23.5858 65.8272 22.7185 65.8272 22.2605C65.8272 20.068 65.6122 18.6248 65.182 17.931C64.7657 17.2371 63.9886 16.8902 62.8507 16.8902C62.6286 16.8902 62.4552 16.8971 62.3303 16.911C62.2193 16.911 62.1083 16.9179 61.9972 16.9318V14.3924ZM113.681 26.0697C112.349 26.0697 111.336 26.6178 110.642 27.7141C109.949 28.7965 109.602 30.3923 109.602 32.5016C109.602 35.3186 109.976 37.4556 110.726 38.9127C111.475 40.3559 112.592 41.0775 114.077 41.0775C115.465 41.0775 116.505 40.5224 117.199 39.4123C117.893 38.2883 118.24 36.6092 118.24 34.375C118.24 31.6551 117.851 29.5944 117.074 28.1929C116.311 26.7774 115.18 26.0697 113.681 26.0697ZM113.91 22.4062C117.699 22.4062 120.752 23.4539 123.069 25.5493C125.4 27.6309 126.566 30.3299 126.566 33.6465C126.566 36.9214 125.38 39.6135 123.007 41.7228C120.648 43.8182 117.602 44.8659 113.869 44.8659C110.15 44.8659 107.125 43.8598 104.793 41.8477C102.476 39.8216 101.317 37.2059 101.317 34.0003C101.317 30.6144 102.497 27.839 104.856 25.6742C107.215 23.4956 110.233 22.4062 113.91 22.4062ZM139.118 22.4479C139.048 23.2943 138.993 23.9812 138.951 24.5086C138.91 25.0359 138.868 25.5216 138.826 25.9656C140.297 24.7861 141.622 23.9327 142.802 23.4054C143.995 22.878 145.168 22.6144 146.32 22.6144C147.596 22.6144 148.707 22.9127 149.65 23.5094C150.594 24.0923 151.343 24.9596 151.898 26.1113C153.314 24.9318 154.653 24.0576 155.916 23.4886C157.178 22.9058 158.386 22.6144 159.537 22.6144C161.536 22.6144 163.138 23.2666 164.346 24.571C165.567 25.8754 166.178 27.61 166.178 29.7748C166.178 30.5658 166.171 31.2527 166.157 31.8355C166.157 32.4045 166.15 32.9734 166.136 33.5424L166.094 35.9986C166.094 36.29 166.087 36.7896 166.073 37.4973C166.06 38.205 166.053 38.767 166.053 39.1833C166.053 40.2241 166.212 40.9387 166.531 41.3273C166.851 41.702 167.433 41.8893 168.28 41.8893C168.321 41.8893 168.412 41.8823 168.55 41.8685C168.703 41.8407 168.821 41.8268 168.904 41.8268V44.0957C167.697 43.9986 166.573 43.9292 165.532 43.8876C164.491 43.832 163.555 43.8043 162.722 43.8043C161.987 43.8043 161.119 43.832 160.12 43.8876C159.121 43.9292 158.018 43.9986 156.811 44.0957V41.8477C156.866 41.8477 156.936 41.8546 157.019 41.8685C157.116 41.8823 157.241 41.8893 157.393 41.8893C158.073 41.8893 158.531 41.6187 158.767 41.0775C159.017 40.5224 159.142 39.2388 159.142 37.2267V34.8121V33.355C159.142 30.7462 158.934 29.1018 158.517 28.4218C158.101 27.728 157.345 27.3811 156.249 27.3811C155.721 27.3811 155.152 27.4851 154.542 27.6933C153.945 27.9014 153.279 28.2276 152.544 28.6716V38.6837C152.544 40.1131 152.655 41.0081 152.877 41.3689C153.112 41.7158 153.557 41.8893 154.209 41.8893C154.375 41.8893 154.5 41.8893 154.583 41.8893C154.667 41.8754 154.75 41.8615 154.833 41.8477V44.0957C152.974 43.9708 151.655 43.8945 150.878 43.8667C150.115 43.8251 149.477 43.8043 148.963 43.8043C148.436 43.8043 147.77 43.8251 146.965 43.8667C146.16 43.8945 144.849 43.9708 143.031 44.0957V41.8477C143.114 41.8615 143.197 41.8754 143.281 41.8893C143.364 41.8893 143.482 41.8893 143.635 41.8893C144.37 41.8893 144.87 41.6187 145.133 41.0775C145.411 40.5224 145.55 39.2804 145.55 37.3516V34.7497V33.6465C145.55 30.9127 145.341 29.1851 144.925 28.4635C144.509 27.7419 143.753 27.3811 142.656 27.3811C142.129 27.3811 141.56 27.4851 140.949 27.6933C140.353 27.8876 139.714 28.1859 139.034 28.5884C139.007 30.0732 138.979 31.4955 138.951 32.8555C138.937 34.2015 138.93 35.5753 138.93 36.9769V38.7254C138.93 40.0853 139.048 40.9526 139.284 41.3273C139.534 41.702 139.985 41.8893 140.637 41.8893C140.79 41.8893 140.908 41.8893 140.991 41.8893C141.074 41.8754 141.158 41.8615 141.241 41.8477V44.0957C139.909 43.9986 138.722 43.9292 137.681 43.8876C136.655 43.832 135.808 43.8043 135.142 43.8043C134.226 43.8043 133.227 43.832 132.145 43.8876C131.076 43.9292 129.945 43.9916 128.752 44.0749V41.8268H129.23C130.299 41.8268 131.021 41.584 131.395 41.0983C131.77 40.5987 131.957 39.336 131.957 37.3099V35.9153V32.2935C131.957 32.0576 131.95 31.6274 131.936 31.0029C131.923 30.3785 131.916 29.872 131.916 29.4834C131.916 28.4704 131.756 27.7627 131.437 27.3603C131.132 26.9439 130.604 26.7358 129.855 26.7358C129.799 26.7358 129.64 26.7497 129.376 26.7774C129.126 26.8052 128.918 26.826 128.752 26.8399V24.6126C130.611 24.3629 132.394 24.0576 134.101 23.6968C135.808 23.336 137.48 22.9197 139.118 22.4479ZM192.675 33.9171H183.308C182.448 33.9171 181.636 33.9379 180.873 33.9795C180.11 34.0211 179.409 34.0836 178.771 34.1668C178.951 36.0541 179.576 37.4903 180.644 38.4756C181.726 39.4608 183.225 39.9535 185.14 39.9535C185.987 39.9535 186.93 39.8078 187.971 39.5164C189.012 39.2111 190.198 38.7323 191.53 38.0801L192.717 40.682C190.76 42.1391 188.894 43.2006 187.118 43.8667C185.355 44.5328 183.544 44.8659 181.685 44.8659C178.438 44.8659 175.808 43.8737 173.796 41.8893C171.798 39.9049 170.798 37.3169 170.798 34.1252C170.798 30.7531 171.916 27.957 174.15 25.7367C176.398 23.5164 179.208 22.4062 182.58 22.4062C185.688 22.4062 188.145 23.4054 189.949 25.4036C191.766 27.4019 192.675 30.1217 192.675 33.5632V33.9171ZM185.848 30.6282C185.737 29.1018 185.362 27.9153 184.724 27.0688C184.086 26.2224 183.267 25.7991 182.268 25.7991C181.213 25.7991 180.36 26.264 179.707 27.1937C179.069 28.1096 178.736 29.3655 178.708 30.9613C180.415 30.9613 181.837 30.9335 182.975 30.878C184.127 30.8225 185.085 30.7393 185.848 30.6282ZM217.633 31.6482L222.025 21.5528C222.108 21.3585 222.233 21.0741 222.399 20.6994C223.69 17.7436 224.349 15.6413 224.377 14.3924C226.167 14.4617 227.569 14.5173 228.582 14.5589C229.608 14.5866 230.434 14.6005 231.059 14.6005C231.725 14.6005 232.571 14.5866 233.598 14.5589C234.639 14.5173 236.096 14.4617 237.969 14.3924V16.9734C236.36 16.9734 235.312 17.1608 234.826 17.5355C234.34 17.8963 234.098 18.5901 234.098 19.617C234.098 19.8806 234.132 20.6439 234.202 21.9067C234.285 23.1695 234.389 24.5641 234.514 26.0905L234.826 29.8165C234.896 30.6907 234.979 31.8702 235.076 33.355C235.381 37.4348 235.707 39.8216 236.054 40.5155C236.249 40.8763 236.547 41.1469 236.949 41.3273C237.352 41.4938 237.879 41.5771 238.531 41.5771C238.615 41.5771 238.732 41.5701 238.885 41.5562C239.052 41.5424 239.177 41.5354 239.26 41.5354L239.239 44.0957C237.546 43.9986 235.992 43.9292 234.576 43.8876C233.161 43.832 231.933 43.8043 230.892 43.8043C229.976 43.8043 228.845 43.832 227.499 43.8876C226.167 43.9292 224.675 43.9986 223.024 44.0957L223.003 41.5354H223.607C224.953 41.5354 225.869 41.3412 226.354 40.9526C226.854 40.5502 227.104 39.8216 227.104 38.767C227.104 38.2536 227.097 37.8719 227.083 37.6222C227.083 37.3724 227.076 37.1434 227.062 36.9353L226.084 22.5311L219.007 38.6421C218.368 40.0992 217.896 41.2371 217.591 42.0558C217.3 42.8745 217.099 43.5545 216.987 44.0957H213.22C213.109 43.4712 212.949 42.7982 212.741 42.0766C212.533 41.355 212.193 40.3628 211.721 39.1L205.31 22.094C204.838 26.5068 204.471 30.1703 204.207 33.0844C203.957 35.9986 203.832 37.8789 203.832 38.7254C203.832 39.7939 204.061 40.5294 204.519 40.9318C204.991 41.3342 205.872 41.5354 207.163 41.5354H207.412V44.0957C205.525 43.9708 204.131 43.8945 203.229 43.8667C202.341 43.8251 201.591 43.8043 200.981 43.8043C200.245 43.8043 198.538 43.8876 195.86 44.0541L195.132 44.0957V41.5354C195.215 41.5354 195.34 41.5424 195.506 41.5562C195.687 41.5701 195.818 41.5771 195.902 41.5771C196.776 41.5771 197.428 41.4452 197.858 41.1816C198.302 40.904 198.628 40.4253 198.837 39.7453C198.989 39.2874 199.26 37.4279 199.648 34.1668C199.829 32.682 199.975 31.5025 200.086 30.6282L200.668 25.7575C200.89 23.9951 201.05 22.5866 201.147 21.532C201.258 20.4635 201.314 19.728 201.314 19.3256C201.314 18.4375 201.112 17.8199 200.71 17.473C200.308 17.1122 199.572 16.9318 198.504 16.9318C198.42 16.9318 198.288 16.9388 198.108 16.9526C197.928 16.9665 197.789 16.9734 197.692 16.9734V14.434C198.982 14.4895 200.176 14.5311 201.272 14.5589C202.368 14.5866 203.333 14.6005 204.165 14.6005C205.012 14.6005 206.004 14.5797 207.142 14.5381C208.28 14.4826 209.765 14.3993 211.596 14.2883V14.4756C211.596 15.4331 212.498 18.2224 214.302 22.8433C215.704 26.4097 216.814 29.3446 217.633 31.6482ZM263.78 39.6621L264.8 41.7436C262.885 42.8676 261.303 43.6794 260.054 44.179C258.805 44.6924 257.771 44.9491 256.953 44.9491C255.745 44.9491 254.83 44.6785 254.205 44.1373C253.595 43.61 253.268 42.819 253.227 41.7644C251.575 42.9162 250.216 43.7349 249.147 44.2206C248.079 44.7063 247.114 44.9491 246.254 44.9491C244.616 44.9491 243.215 44.3316 242.049 43.0966C240.897 41.8615 240.321 40.3767 240.321 38.6421C240.321 35.8529 243.548 33.7367 250 32.2935C251.347 31.9882 252.401 31.7453 253.164 31.5649C253.178 31.1486 253.192 30.7046 253.206 30.2328C253.234 29.7471 253.248 29.4626 253.248 29.3793C253.248 28.3524 253.012 27.5962 252.54 27.1105C252.068 26.6109 251.333 26.3611 250.334 26.3611C249.334 26.3611 248.543 26.5415 247.961 26.9023C247.392 27.2631 247.107 27.7488 247.107 28.3594V28.7965C247.107 29.4071 246.816 29.865 246.233 30.1703C245.65 30.4756 244.762 30.6282 243.569 30.6282C242.778 30.6282 242.181 30.4825 241.778 30.1911C241.376 29.8858 241.175 29.4348 241.175 28.8381C241.175 28.3802 241.355 27.8806 241.716 27.3394C242.091 26.7982 242.625 26.2432 243.319 25.6742C244.554 24.6751 246.004 23.8841 247.669 23.3013C249.334 22.7046 250.965 22.4062 252.561 22.4062C255.281 22.4062 257.314 23.0307 258.66 24.2796C260.02 25.5285 260.699 27.4158 260.699 29.9413C260.699 30.5242 260.644 31.7384 260.533 33.584C260.422 35.4296 260.366 36.9838 260.366 38.2466C260.366 38.9543 260.484 39.4886 260.72 39.8494C260.97 40.2102 261.331 40.3906 261.803 40.3906C262.011 40.3906 262.261 40.3351 262.552 40.2241C262.843 40.1131 263.253 39.9257 263.78 39.6621ZM253.144 34.4166C252.838 34.5138 252.387 34.6525 251.791 34.8329C248.807 35.721 247.315 36.7896 247.315 38.0385C247.315 38.7323 247.551 39.329 248.023 39.8286C248.509 40.3143 249.098 40.5571 249.792 40.5571C250.181 40.5571 250.625 40.453 251.124 40.2449C251.638 40.0367 252.304 39.669 253.123 39.1417L253.144 34.4166ZM282.035 27.506C281.494 27.2007 280.974 26.9786 280.474 26.8399C279.974 26.6872 279.475 26.6109 278.975 26.6109C277.463 26.6109 276.304 27.1521 275.499 28.2345C274.694 29.303 274.292 30.8364 274.292 32.8347C274.292 35.1382 274.715 36.9769 275.562 38.3507C276.408 39.7106 277.532 40.3906 278.934 40.3906C279.35 40.3906 279.815 40.2935 280.328 40.0992C280.842 39.9049 281.411 39.5996 282.035 39.1833C282.049 38.1703 282.056 37.2059 282.056 36.29C282.07 35.3602 282.077 34.4652 282.077 33.6048C282.077 32.5363 282.07 31.5164 282.056 30.545C282.056 29.5736 282.049 28.5606 282.035 27.506ZM289.57 11.8321C289.459 15.6621 289.369 19.506 289.3 23.3637C289.23 27.2076 289.196 31.1209 289.196 35.1035V37.3099C289.196 38.9474 289.32 40.009 289.57 40.4947C289.834 40.9665 290.306 41.2024 290.986 41.2024C291.18 41.2024 291.416 41.1677 291.693 41.0983C291.971 41.015 292.276 40.904 292.609 40.7653L293.088 42.9092C291.423 43.5337 289.709 44.0333 287.947 44.4079C286.198 44.7826 284.373 45.0324 282.472 45.1573C282.375 44.7271 282.299 44.2553 282.243 43.7418C282.188 43.2145 282.146 42.6248 282.118 41.9725C280.911 42.9578 279.773 43.6863 278.705 44.1581C277.636 44.63 276.575 44.8659 275.52 44.8659C272.869 44.8659 270.642 43.8667 268.838 41.8685C267.034 39.8563 266.132 37.3446 266.132 34.3334C266.132 31.0168 267.256 28.2761 269.504 26.1113C271.752 23.9466 274.597 22.8642 278.039 22.8642C278.746 22.8642 279.44 22.9197 280.12 23.0307C280.8 23.1417 281.466 23.3152 282.118 23.5511C282.132 22.9127 282.139 22.3091 282.139 21.7401C282.153 21.1573 282.16 20.6092 282.16 20.0957C282.16 18.2224 281.993 17.0428 281.66 16.5571C281.327 16.0715 280.675 15.8286 279.704 15.8286C279.44 15.8286 279.239 15.8356 279.1 15.8494C278.961 15.8494 278.823 15.8564 278.684 15.8702V13.5389C280.516 13.4002 282.333 13.192 284.137 12.9145C285.955 12.6231 287.766 12.2623 289.57 11.8321ZM316.443 33.9171H307.076C306.215 33.9171 305.404 33.9379 304.64 33.9795C303.877 34.0211 303.176 34.0836 302.538 34.1668C302.719 36.0541 303.343 37.4903 304.411 38.4756C305.494 39.4608 306.993 39.9535 308.908 39.9535C309.754 39.9535 310.698 39.8078 311.738 39.5164C312.779 39.2111 313.966 38.7323 315.298 38.0801L316.484 40.682C314.528 42.1391 312.661 43.2006 310.885 43.8667C309.123 44.5328 307.312 44.8659 305.452 44.8659C302.205 44.8659 299.575 43.8737 297.563 41.8893C295.565 39.9049 294.566 37.3169 294.566 34.1252C294.566 30.7531 295.683 27.957 297.917 25.7367C300.165 23.5164 302.975 22.4062 306.347 22.4062C309.456 22.4062 311.912 23.4054 313.716 25.4036C315.534 27.4019 316.443 30.1217 316.443 33.5632V33.9171ZM309.615 30.6282C309.504 29.1018 309.13 27.9153 308.491 27.0688C307.853 26.2224 307.034 25.7991 306.035 25.7991C304.98 25.7991 304.127 26.264 303.475 27.1937C302.836 28.1096 302.503 29.3655 302.476 30.9613C304.183 30.9613 305.605 30.9335 306.743 30.878C307.895 30.8225 308.852 30.7393 309.615 30.6282Z" fill="#038732"/>
</svg>
