<svg width="277" height="60" viewBox="0 0 277 60" fill="none" xmlns="http://www.w3.org/2000/svg">
<path d="M7.19745 48.0287C6.65432 47.5107 6.62165 47.1134 6.62165 41.0267C6.62165 34.94 6.65432 34.5427 7.19745 34.0247C7.6302 33.6119 8.14873 33.4777 9.28471 33.4842C11.8824 33.4993 11.9331 33.5979 12.0391 38.8413L12.1305 43.3607H23.627H35.1236V39.1416C35.1236 35.2891 35.1754 34.8597 35.7202 34.199C36.2339 33.5762 36.5343 33.4755 37.8795 33.4755C39.0582 33.4755 39.5835 33.6104 40.0178 34.0247C40.5609 34.5427 40.5936 34.94 40.5936 41.0267C40.5936 47.1134 40.5609 47.5107 40.0178 48.0287C39.456 48.5646 39.0582 48.5779 23.6076 48.5779C8.15711 48.5779 7.75929 48.5646 7.19745 48.0287ZM0.893518 29.4844C0.302619 28.8425 0 28.2238 0 27.6574C0 26.7022 0.687514 26.0051 4.41728 23.1784L6.5912 21.5309L6.60643 16.9794C6.62112 12.586 6.6448 12.4072 7.28798 11.8308C7.78981 11.3812 8.31184 11.2338 9.40259 11.2338C11.4874 11.2338 11.9087 11.7707 12.0917 14.6604L12.2357 16.9337L17.406 12.7857C21.9743 9.12065 22.6969 8.6377 23.612 8.6377C24.526 8.6377 25.2544 9.12268 29.8136 12.7668C32.6549 15.0378 37.5059 18.9053 40.5936 21.3613C43.6813 23.8172 46.4343 26.0785 46.7114 26.3864C47.4822 27.2429 47.3393 28.3791 46.3218 29.4844C44.598 31.3569 44.5979 31.3568 34.6156 23.4165C29.7488 19.5452 25.2952 15.95 24.7187 15.427L23.6706 14.476L22.5595 15.418C21.9484 15.9361 18.9869 18.322 15.9783 20.7202C12.9698 23.1183 9.00109 26.2897 7.15897 27.7677C4.31264 30.0515 3.65779 30.455 2.79835 30.455C2.00112 30.455 1.59789 30.2496 0.893518 29.4844Z" fill="#038732"/>
<path d="M63.3427 14.6562C65.3426 14.7697 66.9382 14.8548 68.1296 14.9115C69.3352 14.9683 70.3067 14.9966 71.0443 14.9966C72.0938 14.9966 73.3065 14.9683 74.6823 14.9115C76.0581 14.8548 77.6679 14.7697 79.5117 14.6562V17.2518H78.9798C77.675 17.2518 76.7956 17.5496 76.3417 18.1453C75.8879 18.741 75.6609 20.3083 75.6609 22.8471V23.4003V27.1446C76.6254 27.2014 77.597 27.251 78.5756 27.2936C79.5543 27.3219 80.5755 27.3361 81.6392 27.3361C83.3979 27.3361 85.2418 27.2865 87.1707 27.1872C87.6671 27.1588 87.9721 27.1446 88.0855 27.1446H88.2557V22.2727C88.2557 20.0601 88.0288 18.6701 87.5749 18.1028C87.1352 17.5355 86.263 17.2518 84.9581 17.2518H84.4688V14.6562C86.3126 14.7697 87.9153 14.8548 89.2769 14.9115C90.6385 14.9683 91.837 14.9966 92.8724 14.9966C93.6241 14.9966 94.6169 14.9683 95.8509 14.9115C97.099 14.8548 98.6946 14.7697 100.638 14.6562V17.2518C100.51 17.2376 100.382 17.2305 100.255 17.2305C100.127 17.2163 99.9499 17.2092 99.7229 17.2092C98.5599 17.2092 97.7727 17.6418 97.3614 18.507C96.9643 19.3722 96.7657 21.5848 96.7657 25.1448V26.9319V28.5062V31.0805C96.7657 31.7046 96.7586 32.5414 96.7444 33.591C96.7303 34.6405 96.7232 35.371 96.7232 35.7823C96.7232 37.4985 96.7657 38.7608 96.8508 39.5692C96.9501 40.3635 97.1061 40.9592 97.3189 41.3563C97.5174 41.7251 97.8436 42.0017 98.2975 42.1861C98.7514 42.3563 99.34 42.4414 100.063 42.4414C100.134 42.4414 100.262 42.4343 100.446 42.4201C100.631 42.4059 100.765 42.3988 100.851 42.3988V45.0156C98.8223 44.888 97.1628 44.8029 95.8722 44.7603C94.5815 44.7036 93.5532 44.6752 92.7873 44.6752C91.7945 44.6752 90.6031 44.7036 89.2131 44.7603C87.8373 44.8029 86.1424 44.888 84.1284 45.0156V42.3988C84.2418 42.413 84.3624 42.4272 84.4901 42.4414C84.6319 42.4414 84.8305 42.4414 85.0858 42.4414C86.3055 42.4414 87.1352 42.1506 87.5749 41.5691C88.0288 40.9734 88.2557 39.4487 88.2557 36.995V36.1652V36.0376V31.74C87.192 31.6833 86.1353 31.6479 85.0858 31.6337C84.0362 31.6053 82.9724 31.5911 81.8945 31.5911C80.6747 31.5911 79.0366 31.6266 76.98 31.6975C76.3701 31.7117 75.9304 31.7188 75.6609 31.7188V36.1652V36.995C75.6609 39.4487 75.8808 40.9663 76.3205 41.5478C76.7601 42.1151 77.6041 42.3988 78.8522 42.3988H79.4692H79.8096V45.0156C77.7955 44.888 76.0935 44.8029 74.7036 44.7603C73.3136 44.7036 72.1222 44.6752 71.1294 44.6752C70.406 44.6752 69.4203 44.7036 68.1721 44.7603C66.9382 44.8029 65.2575 44.888 63.13 45.0156V42.3988H63.7682C64.5767 42.3988 65.1866 42.3208 65.5979 42.1648C66.0234 41.9946 66.3283 41.7251 66.5127 41.3563C66.9098 40.5621 67.1297 37.6545 67.1722 32.6336C67.1722 31.9953 67.1722 31.506 67.1722 31.1656V28.5913C67.1722 27.7403 67.1864 26.6624 67.2148 25.3576C67.2431 24.0527 67.2573 23.1662 67.2573 22.6982C67.2573 20.4572 67.0375 18.9822 66.5978 18.273C66.1723 17.5638 65.378 17.2092 64.215 17.2092C63.9881 17.2092 63.8108 17.2163 63.6831 17.2305C63.5697 17.2305 63.4562 17.2376 63.3427 17.2518V14.6562ZM116.168 26.5915C114.807 26.5915 113.772 27.1517 113.062 28.2722C112.353 29.3785 111.999 31.0096 111.999 33.1655C111.999 36.0447 112.382 38.2289 113.147 39.7182C113.913 41.1932 115.055 41.9308 116.573 41.9308C117.991 41.9308 119.055 41.3634 119.764 40.2288C120.473 39.0799 120.828 37.3637 120.828 35.0802C120.828 32.3003 120.431 30.1941 119.636 28.7615C118.856 27.3148 117.7 26.5915 116.168 26.5915ZM116.403 22.8471C120.275 22.8471 123.395 23.9179 125.763 26.0596C128.146 28.1871 129.338 30.9458 129.338 34.3356C129.338 37.6829 128.125 40.4344 125.7 42.5903C123.289 44.732 120.175 45.8028 116.36 45.8028C112.559 45.8028 109.467 44.7745 107.084 42.7179C104.715 40.6472 103.531 37.9736 103.531 34.6973C103.531 31.2365 104.737 28.3999 107.148 26.1873C109.559 23.9605 112.644 22.8471 116.403 22.8471ZM142.166 22.8897C142.096 23.7548 142.039 24.4569 141.996 24.9959C141.954 25.5348 141.911 26.0313 141.869 26.4851C143.372 25.2795 144.727 24.4073 145.932 23.8683C147.152 23.3293 148.35 23.0599 149.528 23.0599C150.833 23.0599 151.967 23.3648 152.932 23.9747C153.896 24.5704 154.662 25.4568 155.229 26.634C156.676 25.4285 158.045 24.5349 159.335 23.9534C160.626 23.3577 161.86 23.0599 163.037 23.0599C165.08 23.0599 166.718 23.7265 167.952 25.0597C169.2 26.3929 169.824 28.1658 169.824 30.3784C169.824 31.1869 169.817 31.889 169.803 32.4847C169.803 33.0662 169.796 33.6477 169.781 34.2292L169.739 36.7397C169.739 37.0375 169.732 37.5481 169.718 38.2715C169.703 38.9948 169.696 39.5692 169.696 39.9947C169.696 41.0585 169.859 41.7889 170.186 42.1861C170.512 42.569 171.108 42.7605 171.973 42.7605C172.015 42.7605 172.107 42.7534 172.249 42.7392C172.405 42.7108 172.526 42.6967 172.611 42.6967V45.0156C171.377 44.9163 170.228 44.8454 169.164 44.8029C168.101 44.7461 167.143 44.7178 166.292 44.7178C165.541 44.7178 164.654 44.7461 163.633 44.8029C162.612 44.8454 161.484 44.9163 160.25 45.0156V42.7179C160.307 42.7179 160.378 42.725 160.463 42.7392C160.562 42.7534 160.69 42.7605 160.846 42.7605C161.541 42.7605 162.009 42.4839 162.25 41.9308C162.505 41.3634 162.633 40.0515 162.633 37.9949V35.527V34.0377C162.633 31.3713 162.42 29.6906 161.995 28.9956C161.569 28.2864 160.796 27.9318 159.676 27.9318C159.137 27.9318 158.555 28.0382 157.931 28.2509C157.321 28.4637 156.641 28.797 155.889 29.2509V39.4841C155.889 40.945 156.002 41.8598 156.229 42.2286C156.47 42.5832 156.924 42.7605 157.591 42.7605C157.761 42.7605 157.889 42.7605 157.974 42.7605C158.059 42.7463 158.144 42.7321 158.229 42.7179V45.0156C156.329 44.888 154.981 44.81 154.187 44.7816C153.407 44.7391 152.754 44.7178 152.23 44.7178C151.691 44.7178 151.01 44.7391 150.187 44.7816C149.365 44.81 148.024 44.888 146.166 45.0156V42.7179C146.251 42.7321 146.336 42.7463 146.421 42.7605C146.507 42.7605 146.627 42.7605 146.783 42.7605C147.535 42.7605 148.045 42.4839 148.315 41.9308C148.599 41.3634 148.74 40.094 148.74 38.1225V35.4632V34.3356C148.74 31.5415 148.528 29.7757 148.102 29.0381C147.677 28.3006 146.904 27.9318 145.783 27.9318C145.244 27.9318 144.663 28.0382 144.039 28.2509C143.429 28.4495 142.776 28.7545 142.081 29.1658C142.053 30.6834 142.025 32.1372 141.996 33.5271C141.982 34.9029 141.975 36.3071 141.975 37.7396V39.5267C141.975 40.9166 142.096 41.8031 142.337 42.1861C142.592 42.569 143.053 42.7605 143.72 42.7605C143.876 42.7605 143.996 42.7605 144.081 42.7605C144.166 42.7463 144.251 42.7321 144.337 42.7179V45.0156C142.975 44.9163 141.762 44.8454 140.699 44.8029C139.649 44.7461 138.784 44.7178 138.103 44.7178C137.167 44.7178 136.146 44.7461 135.039 44.8029C133.947 44.8454 132.791 44.9093 131.572 44.9944V42.6967H132.061C133.153 42.6967 133.891 42.4484 134.273 41.952C134.656 41.4414 134.848 40.1507 134.848 38.08V36.6546V32.9527C134.848 32.7116 134.841 32.2719 134.827 31.6337C134.812 30.9954 134.805 30.4777 134.805 30.0806C134.805 29.0452 134.642 28.3219 134.316 27.9105C134.004 27.485 133.465 27.2723 132.699 27.2723C132.642 27.2723 132.479 27.2865 132.21 27.3148C131.955 27.3432 131.742 27.3645 131.572 27.3787V25.1023C133.472 24.847 135.295 24.5349 137.039 24.1662C138.784 23.7974 140.493 23.3719 142.166 22.8897ZM196.907 34.6122H187.333C186.454 34.6122 185.624 34.6334 184.844 34.676C184.064 34.7185 183.348 34.7824 182.695 34.8675C182.88 36.7964 183.518 38.2644 184.61 39.2714C185.716 40.2784 187.248 40.7819 189.205 40.7819C190.071 40.7819 191.035 40.633 192.099 40.3351C193.163 40.0231 194.375 39.5338 195.737 38.8672L196.95 41.5265C194.95 43.0158 193.042 44.1008 191.227 44.7816C189.425 45.4624 187.574 45.8028 185.674 45.8028C182.355 45.8028 179.667 44.7887 177.611 42.7605C175.568 40.7323 174.547 38.0871 174.547 34.8249C174.547 31.3784 175.689 28.5204 177.972 26.2511C180.27 23.9818 183.142 22.8471 186.589 22.8471C189.766 22.8471 192.276 23.8683 194.12 25.9107C195.978 27.9531 196.907 30.733 196.907 34.2505V34.6122ZM189.929 31.2507C189.815 29.6906 189.432 28.4779 188.78 27.6127C188.128 26.7475 187.291 26.3149 186.27 26.3149C185.192 26.3149 184.319 26.7901 183.653 27.7403C183 28.6764 182.66 29.96 182.632 31.5911C184.376 31.5911 185.83 31.5628 186.993 31.506C188.17 31.4493 189.149 31.3642 189.929 31.2507ZM225.947 15.7413V17.0816C225.947 18.3014 225.997 19.4927 226.096 20.6558C226.196 21.8188 226.33 22.9535 226.5 24.0598L223.458 24.5278C223.288 22.4145 222.558 20.8118 221.267 19.7197C219.99 18.6276 218.196 18.0815 215.884 18.0815C214.196 18.0815 212.842 18.429 211.821 19.124C210.814 19.819 210.31 20.7409 210.31 21.8897C210.31 23.5066 212.473 24.7619 216.799 25.6554C217.097 25.7121 217.331 25.7618 217.501 25.8043C221.175 26.5702 223.806 27.6552 225.394 29.0594C226.983 30.4635 227.777 32.3854 227.777 34.8249C227.777 38.1154 226.415 40.789 223.692 42.8456C220.983 44.9022 217.409 45.9304 212.97 45.9304C211.083 45.9304 209.296 45.7673 207.608 45.4411C205.92 45.1149 204.353 44.6256 202.907 43.9732C202.921 43.7746 202.928 43.576 202.928 43.3775C202.942 43.1789 202.949 42.8669 202.949 42.4414C202.949 41.1223 202.878 39.7891 202.736 38.4417C202.595 37.0942 202.389 35.7539 202.119 34.4207L205.396 33.8675C205.878 36.5624 206.8 38.5409 208.161 39.8033C209.537 41.0656 211.445 41.6967 213.884 41.6967C215.686 41.6967 217.118 41.3492 218.182 40.6543C219.26 39.9593 219.799 39.0303 219.799 37.8672C219.799 36.1085 217.884 34.7682 214.055 33.8463C213.317 33.6619 212.75 33.52 212.353 33.4208C208.679 32.4988 206.119 31.3571 204.672 29.9955C203.226 28.6339 202.502 26.7688 202.502 24.4002C202.502 21.3224 203.793 18.7978 206.374 16.8263C208.956 14.8548 212.303 13.8691 216.416 13.8691C218.246 13.8691 219.941 14.0251 221.501 14.3371C223.075 14.635 224.557 15.103 225.947 15.7413ZM253.796 34.6122H244.223C243.343 34.6122 242.513 34.6334 241.733 34.676C240.953 34.7185 240.237 34.7824 239.585 34.8675C239.769 36.7964 240.407 38.2644 241.499 39.2714C242.606 40.2784 244.137 40.7819 246.095 40.7819C246.96 40.7819 247.924 40.633 248.988 40.3351C250.052 40.0231 251.265 39.5338 252.626 38.8672L253.839 41.5265C251.839 43.0158 249.931 44.1008 248.116 44.7816C246.315 45.4624 244.464 45.8028 242.563 45.8028C239.244 45.8028 236.556 44.7887 234.5 42.7605C232.457 40.7323 231.436 38.0871 231.436 34.8249C231.436 31.3784 232.578 28.5204 234.862 26.2511C237.159 23.9818 240.031 22.8471 243.478 22.8471C246.655 22.8471 249.165 23.8683 251.009 25.9107C252.867 27.9531 253.796 30.733 253.796 34.2505V34.6122ZM246.818 31.2507C246.705 29.6906 246.322 28.4779 245.669 27.6127C245.017 26.7475 244.18 26.3149 243.159 26.3149C242.081 26.3149 241.209 26.7901 240.542 27.7403C239.89 28.6764 239.549 29.96 239.521 31.5911C241.265 31.5911 242.719 31.5628 243.882 31.506C245.059 31.4493 246.038 31.3642 246.818 31.2507ZM265.37 18.6985L267.987 19.2729C267.973 19.4573 267.944 19.7622 267.902 20.1877C267.746 21.9748 267.66 23.3648 267.646 24.3576C268.753 24.3576 269.88 24.3364 271.029 24.2938C272.178 24.2371 273.341 24.1591 274.518 24.0598L273.859 27.9744C272.795 27.9035 271.83 27.8538 270.965 27.8254C270.114 27.7829 269.327 27.7616 268.604 27.7616H267.582C267.582 28.2155 267.575 28.875 267.561 29.7402C267.519 32.1372 267.497 33.7257 267.497 34.5058C267.497 37.2006 267.731 39.0019 268.199 39.9096C268.667 40.8174 269.483 41.2712 270.646 41.2712C271.029 41.2712 271.483 41.1932 272.008 41.0372C272.547 40.8812 273.192 40.6401 273.944 40.3139L275.007 42.803C272.951 43.8668 271.235 44.6398 269.859 45.122C268.497 45.6042 267.32 45.8453 266.327 45.8453C264.242 45.8453 262.654 45.2 261.562 43.9093C260.47 42.6045 259.923 40.7252 259.923 38.2715C259.923 37.8743 259.959 36.5056 260.03 34.1654C260.101 31.8251 260.136 29.6764 260.136 27.7191C259.952 27.7191 259.42 27.7333 258.541 27.7616C257.675 27.7758 256.995 27.8042 256.498 27.8467L256.477 24.9746C258.519 24.7051 260.264 24.0598 261.711 23.0386C263.171 22.0174 264.391 20.5707 265.37 18.6985Z" fill="#038732"/>
</svg>
